<?xml version="1.0" encoding="utf-8"?>
<!-- Generator: Adobe Illustrator 22.1.0, SVG Export Plug-In . SVG Version: 6.00 Build 0)  -->
<svg version="1.1" xmlns="http://www.w3.org/2000/svg" xmlns:xlink="http://www.w3.org/1999/xlink" x="0px" y="0px"
	 viewBox="0 0 100 100" style="enable-background:new 0 0 100 100;" xml:space="preserve">
<style type="text/css">
	.st0{display:none;}
	.st1{fill:#FFFFFF;}
</style>
<g id="Layer_1" class="st0">
	
		<image style="display:inline;overflow:visible;" width="980" height="980" xlink:href="img_267657.png"  transform="matrix(0.8122 0 0 0.8122 -350 -348)">
	</image>
</g>
<g id="Layer_2">
	<path class="st1" d="M60.6,43.2h-7V39c0,0-0.2-2.6,2.7-2.6c3,0,4,0,4,0v-6.7l-6.7,0.1c0,0-8.9-0.7-8.9,8.4c0,1.4,0,3.1,0,5.1h-4.6
		v6.7h4.5c0,9.7,0,20.4,0,20.4h8.9V49.9h6.2L60.6,43.2z"/>
	<g>
		<path class="st1" d="M50.4,1c27,0,49,22,49,49s-22,49-49,49s-49-22-49-49S23.4,1,50.4,1 M50.4,0c-27.6,0-50,22.4-50,50
			s22.4,50,50,50s50-22.4,50-50S78,0,50.4,0L50.4,0z"/>
	</g>
</g>
</svg>
