<?xml version="1.0" encoding="utf-8"?>
<!-- Generator: Adobe Illustrator 22.1.0, SVG Export Plug-In . SVG Version: 6.00 Build 0)  -->
<svg version="1.1" id="Layer_1" xmlns="http://www.w3.org/2000/svg" xmlns:xlink="http://www.w3.org/1999/xlink" x="0px" y="0px"
	 viewBox="0 0 100 100" style="enable-background:new 0 0 100 100;" xml:space="preserve">
<style type="text/css">
	.st0{display:none;}
	.st1{fill:#FFFFFF;}
</style>
<g id="Layer_2_1_" class="st0">
	
		<image style="display:inline;overflow:visible;enable-background:new    ;" width="225" height="225" xlink:href="images.png"  transform="matrix(0.44 0 0 0.44 1 1)">
	</image>
</g>
<g id="Layer_1_1_">
	<g>
		<path class="st1" d="M50,1c27,0,49,22,49,49S77,99,50,99S1,77,1,50S23,1,50,1 M50,0C22.4,0,0,22.4,0,50s22.4,50,50,50
			s50-22.4,50-50S77.6,0,50,0L50,0z"/>
	</g>
	<g>
		<path class="st1" d="M63.2,30.9c3.9,0,6.9,3.1,6.9,6.9v25.4c0,3.9-3.1,6.9-6.9,6.9H37.8c-3.9,0-6.9-3.1-6.9-6.9V37.8
			c0-3.9,3.1-6.9,6.9-6.9H63.2 M63.2,27H37.8C31.9,27,27,31.9,27,37.8v25.4C27,69.1,31.9,74,37.8,74h25.4C69.1,74,74,69.1,74,63.2
			V37.8C74,31.9,69.1,27,63.2,27L63.2,27z"/>
	</g>
	<g>
		<path class="st1" d="M50.4,41.9c4.8,0,8.6,3.9,8.6,8.6s-3.9,8.6-8.6,8.6s-8.6-3.9-8.6-8.6S45.6,41.9,50.4,41.9 M50.4,38
			c-6.9,0-12.5,5.6-12.5,12.5S43.6,63,50.4,63s12.5-5.6,12.5-12.5S57.3,38,50.4,38L50.4,38z"/>
	</g>
	<g>
		<circle class="st1" cx="63.1" cy="37.9" r="3.3"/>
	</g>
</g>
</svg>
