<?xml version="1.0" encoding="utf-8"?>
<!-- Generator: Adobe Illustrator 22.1.0, SVG Export Plug-In . SVG Version: 6.00 Build 0)  -->
<svg version="1.1" id="Layer_1" xmlns="http://www.w3.org/2000/svg" xmlns:xlink="http://www.w3.org/1999/xlink" x="0px" y="0px"
	 viewBox="0 0 100 100" style="enable-background:new 0 0 100 100;" xml:space="preserve">
<style type="text/css">
	.st0{display:none;}
	.st1{fill:#FFFFFF;}
</style>
<g id="Layer_2_1_" class="st0">
	
		<image style="display:inline;overflow:visible;enable-background:new    ;" width="980" height="980" xlink:href="img_146816.png"  transform="matrix(0.102 0 0 0.102 0 0)">
	</image>
</g>
<g id="Layer_1_1_">
	<g>
		<path class="st1" d="M50,1c27,0,49,22,49,49S77,99,50,99S1,77,1,50S23,1,50,1 M50,0C22.4,0,0,22.4,0,50s22.4,50,50,50
			s50-22.4,50-50S77.6,0,50,0L50,0z"/>
	</g>
	<path class="st1" d="M49.4,42.8c0,0-10.8-0.3-19.3-9.7c-1.6,1.4-1.7,9.8,3,12.4c0,0-2.2,0.2-3.9-1c-0.3,0.8,0.7,7.6,7.2,9.3
		c-0.6,0.6-3.8,0-3.8,0s1.6,6.2,8.7,6.5c-0.7,1.3-7.5,4.9-13.4,3.9c1.2,1.5,19,11,33.4-4.4c7.3-8.2,7-18.9,7-18.9s3.6-3.9,4-4.7
		c-1.3,0.4-4.4,1.3-5,1.3c1-0.5,3.3-2.5,3.9-5.1c-0.9,0.4-3,1.6-5.9,2.1c-0.6-1-4.7-5-11.2-1.8S49.4,42.8,49.4,42.8z"/>
</g>
</svg>
